<svg width="190" height="151" viewBox="0 0 190 151" fill="none" xmlns="http://www.w3.org/2000/svg">
<g filter="url(#filter0_d)">
<circle r="6.948" transform="matrix(-4.37114e-08 1 1 4.37114e-08 13.948 52.844)" fill="#E0E0E0"/>
<circle r="6.948" transform="matrix(-4.37114e-08 1 1 4.37114e-08 91.74 52.844)" fill="#E0E0E0"/>
<circle r="6.948" transform="matrix(-4.37114e-08 1 1 4.37114e-08 52.844 52.844)" fill="#E0E0E0"/>
<circle r="6.948" transform="matrix(-4.37114e-08 1 1 4.37114e-08 130.636 52.844)" fill="#E0E0E0"/>
<circle r="6.948" transform="matrix(-4.37114e-08 1 1 4.37114e-08 169.532 52.844)" fill="#E0E0E0"/>
<circle r="6.948" transform="matrix(-4.37114e-08 1 1 4.37114e-08 13.948 130.636)" fill="#E0E0E0"/>
<circle r="6.948" transform="matrix(-4.37114e-08 1 1 4.37114e-08 91.74 130.636)" fill="#E0E0E0"/>
<circle r="6.948" transform="matrix(-4.37114e-08 1 1 4.37114e-08 52.844 130.636)" fill="#E0E0E0"/>
<circle r="6.948" transform="matrix(-4.37114e-08 1 1 4.37114e-08 130.636 130.636)" fill="#E0E0E0"/>
<circle r="6.948" transform="matrix(-4.37114e-08 1 1 4.37114e-08 169.532 130.636)" fill="#E0E0E0"/>
<circle r="6.948" transform="matrix(-4.37114e-08 1 1 4.37114e-08 13.948 13.948)" fill="#E0E0E0"/>
<circle r="6.948" transform="matrix(-4.37114e-08 1 1 4.37114e-08 91.74 13.948)" fill="#E0E0E0"/>
<circle r="6.948" transform="matrix(-4.37114e-08 1 1 4.37114e-08 52.844 13.948)" fill="#E0E0E0"/>
<circle r="6.948" transform="matrix(-4.37114e-08 1 1 4.37114e-08 130.636 13.948)" fill="#E0E0E0"/>
<circle r="6.948" transform="matrix(-4.37114e-08 1 1 4.37114e-08 169.532 13.948)" fill="#E0E0E0"/>
<circle r="6.948" transform="matrix(-4.37114e-08 1 1 4.37114e-08 13.948 91.74)" fill="#E0E0E0"/>
<circle r="6.948" transform="matrix(-4.37114e-08 1 1 4.37114e-08 91.74 91.74)" fill="#E0E0E0"/>
<circle r="6.948" transform="matrix(-4.37114e-08 1 1 4.37114e-08 52.844 91.74)" fill="#E0E0E0"/>
<circle r="6.948" transform="matrix(-4.37114e-08 1 1 4.37114e-08 130.636 91.74)" fill="#E0E0E0"/>
<circle r="6.948" transform="matrix(-4.37114e-08 1 1 4.37114e-08 169.532 91.74)" fill="#E0E0E0"/>
</g>
<defs>
<filter id="filter0_d" x="0" y="0" width="189.48" height="150.584" filterUnits="userSpaceOnUse" color-interpolation-filters="sRGB">
<feFlood flood-opacity="0" result="BackgroundImageFix"/>
<feColorMatrix in="SourceAlpha" type="matrix" values="0 0 0 0 0 0 0 0 0 0 0 0 0 0 0 0 0 0 127 0"/>
<feOffset dx="3" dy="3"/>
<feGaussianBlur stdDeviation="5"/>
<feColorMatrix type="matrix" values="0 0 0 0 0 0 0 0 0 0 0 0 0 0 0 0 0 0 0.25 0"/>
<feBlend mode="normal" in2="BackgroundImageFix" result="effect1_dropShadow"/>
<feBlend mode="normal" in="SourceGraphic" in2="effect1_dropShadow" result="shape"/>
</filter>
</defs>
</svg>
