<svg width="333" height="183" viewBox="0 0 333 183" fill="none" xmlns="http://www.w3.org/2000/svg">
<g filter="url(#filter0_d)">
<ellipse rx="6.5" ry="7" transform="matrix(1 0 0 -1 13.5 51)" fill="#CCCCCC"/>
<ellipse rx="6.5" ry="7" transform="matrix(1 0 0 -1 13.5 126)" fill="#CCCCCC"/>
<ellipse rx="6.5" ry="7" transform="matrix(1 0 0 -1 13.5 163)" fill="#CCCCCC"/>
<circle r="6.5" transform="matrix(1 0 0 -1 13.5 13.5)" fill="#CCCCCC"/>
<circle r="6.5" transform="matrix(1 0 0 -1 13.5 88.5)" fill="#CCCCCC"/>
<circle r="7" transform="matrix(1 0 0 -1 238 51)" fill="#CCCCCC"/>
<circle r="7" transform="matrix(1 0 0 -1 238 126)" fill="#CCCCCC"/>
<circle r="7" transform="matrix(1 0 0 -1 238 163)" fill="#CCCCCC"/>
<ellipse rx="7" ry="6.5" transform="matrix(1 0 0 -1 238 13.5)" fill="#CCCCCC"/>
<ellipse rx="7" ry="6.5" transform="matrix(1 0 0 -1 238 88.5)" fill="#CCCCCC"/>
<ellipse rx="6.5" ry="7" transform="matrix(1 0 0 -1 88.5 51)" fill="#CCCCCC"/>
<ellipse rx="6.5" ry="7" transform="matrix(1 0 0 -1 88.5 126)" fill="#CCCCCC"/>
<ellipse rx="6.5" ry="7" transform="matrix(1 0 0 -1 88.5 163)" fill="#CCCCCC"/>
<circle r="6.5" transform="matrix(1 0 0 -1 88.5 13.5)" fill="#CCCCCC"/>
<circle r="6.5" transform="matrix(1 0 0 -1 88.5 88.5)" fill="#CCCCCC"/>
<circle r="7" transform="matrix(1 0 0 -1 313 51)" fill="#CCCCCC"/>
<circle r="7" transform="matrix(1 0 0 -1 313 126)" fill="#CCCCCC"/>
<circle r="7" transform="matrix(1 0 0 -1 313 163)" fill="#CCCCCC"/>
<ellipse rx="7" ry="6.5" transform="matrix(1 0 0 -1 313 13.5)" fill="#CCCCCC"/>
<ellipse rx="7" ry="6.5" transform="matrix(1 0 0 -1 313 88.5)" fill="#CCCCCC"/>
<ellipse rx="6.5" ry="7" transform="matrix(1 0 0 -1 163.5 51)" fill="#CCCCCC"/>
<ellipse rx="6.5" ry="7" transform="matrix(1 0 0 -1 163.5 126)" fill="#CCCCCC"/>
<ellipse rx="6.5" ry="7" transform="matrix(1 0 0 -1 163.5 163)" fill="#CCCCCC"/>
<circle r="6.5" transform="matrix(1 0 0 -1 163.5 13.5)" fill="#CCCCCC"/>
<circle r="6.5" transform="matrix(1 0 0 -1 163.5 88.5)" fill="#CCCCCC"/>
<circle r="7" transform="matrix(1 0 0 -1 51 51)" fill="#CCCCCC"/>
<circle r="7" transform="matrix(1 0 0 -1 51 126)" fill="#CCCCCC"/>
<circle r="7" transform="matrix(1 0 0 -1 51 163)" fill="#CCCCCC"/>
<ellipse rx="7" ry="6.5" transform="matrix(1 0 0 -1 51 13.5)" fill="#CCCCCC"/>
<ellipse rx="7" ry="6.5" transform="matrix(1 0 0 -1 51 88.5)" fill="#CCCCCC"/>
<ellipse rx="6.5" ry="7" transform="matrix(1 0 0 -1 275.5 51)" fill="#CCCCCC"/>
<ellipse rx="6.5" ry="7" transform="matrix(1 0 0 -1 275.5 126)" fill="#CCCCCC"/>
<ellipse rx="6.5" ry="7" transform="matrix(1 0 0 -1 275.5 163)" fill="#CCCCCC"/>
<circle r="6.5" transform="matrix(1 0 0 -1 275.5 13.5)" fill="#CCCCCC"/>
<circle r="6.5" transform="matrix(1 0 0 -1 275.5 88.5)" fill="#CCCCCC"/>
<circle r="7" transform="matrix(1 0 0 -1 126 51)" fill="#CCCCCC"/>
<circle r="7" transform="matrix(1 0 0 -1 126 126)" fill="#CCCCCC"/>
<circle r="7" transform="matrix(1 0 0 -1 126 163)" fill="#CCCCCC"/>
<ellipse rx="7" ry="6.5" transform="matrix(1 0 0 -1 126 13.5)" fill="#CCCCCC"/>
<ellipse rx="7" ry="6.5" transform="matrix(1 0 0 -1 126 88.5)" fill="#CCCCCC"/>
<ellipse rx="6.5" ry="7" transform="matrix(1 0 0 -1 200.5 51)" fill="#CCCCCC"/>
<ellipse rx="6.5" ry="7" transform="matrix(1 0 0 -1 200.5 126)" fill="#CCCCCC"/>
<ellipse rx="6.5" ry="7" transform="matrix(1 0 0 -1 200.5 163)" fill="#CCCCCC"/>
<circle r="6.5" transform="matrix(1 0 0 -1 200.5 13.5)" fill="#CCCCCC"/>
<circle r="6.5" transform="matrix(1 0 0 -1 200.5 88.5)" fill="#CCCCCC"/>
</g>
<defs>
<filter id="filter0_d" x="0" y="0" width="333" height="183" filterUnits="userSpaceOnUse" color-interpolation-filters="sRGB">
<feFlood flood-opacity="0" result="BackgroundImageFix"/>
<feColorMatrix in="SourceAlpha" type="matrix" values="0 0 0 0 0 0 0 0 0 0 0 0 0 0 0 0 0 0 127 0"/>
<feOffset dx="3" dy="3"/>
<feGaussianBlur stdDeviation="5"/>
<feColorMatrix type="matrix" values="0 0 0 0 0 0 0 0 0 0 0 0 0 0 0 0 0 0 0.25 0"/>
<feBlend mode="normal" in2="BackgroundImageFix" result="effect1_dropShadow"/>
<feBlend mode="normal" in="SourceGraphic" in2="effect1_dropShadow" result="shape"/>
</filter>
</defs>
</svg>
