<svg width="114" height="106" viewBox="0 0 114 106" fill="none" xmlns="http://www.w3.org/2000/svg">
<path d="M12.5801 31.4791C10.7988 29.7088 9.44434 27.6987 8.5166 25.4489C7.58887 23.199 7.125 20.8386 7.125 18.3674C7.125 15.7488 7.60742 13.333 8.57227 11.12C9.53711 8.9071 10.8545 6.97077 12.5244 5.31106C14.1943 3.65136 16.1797 2.36047 18.4805 1.43841C20.7812 0.516354 23.2119 0.0368824 25.7725 0C28.2217 0 30.5967 0.424148 32.8975 1.27244C35.1982 2.12074 37.2393 3.43006 39.0205 5.20042L61.2305 27.2902L56.165 32.3246L42.75 18.976L26.4404 35.1858L39.8555 48.5345L34.79 53.5689L12.5801 31.4791ZM25.8281 6.97077C24.2324 6.97077 22.7295 7.24739 21.3193 7.80063C19.9092 8.35386 18.6846 9.16527 17.6455 10.2349C16.6064 11.3045 15.79 12.5031 15.1963 13.8309C14.6025 15.1587 14.2871 16.6708 14.25 18.3674C14.25 19.769 14.4355 20.9861 14.8066 22.0188C15.1777 23.0515 15.7158 24.0289 16.4209 24.9509C17.126 25.873 17.8867 26.7397 18.7031 27.5511C19.5195 28.3626 20.4102 29.2293 21.375 30.1514L37.6846 13.9415C36.7197 13.0195 35.8477 12.1343 35.0684 11.286C34.2891 10.4377 33.4355 9.70007 32.5078 9.07307C31.5801 8.44607 30.6152 7.92971 29.6133 7.52401C28.6113 7.1183 27.3496 6.93389 25.8281 6.97077ZM114 106L78.7646 97.2589L59.9102 78.5042L64.9756 73.4697L79.5996 88.0752C80.1934 86.1573 81.0098 84.35 82.0488 82.6534C83.0879 80.9569 84.3311 79.3893 85.7783 77.9509C87.2256 76.5125 88.7842 75.2954 90.4541 74.2996C92.124 73.3038 93.9609 72.4739 95.9648 71.81L81.2852 57.2599L86.3506 52.2255L105.205 70.9802L114 106ZM104.203 96.263L99.6387 78.0616C97.8945 78.4304 96.2803 79.0205 94.7959 79.8319C93.3115 80.6434 91.957 81.6576 90.7324 82.8747C89.5078 84.0919 88.4873 85.4381 87.6709 86.9134C86.8545 88.3887 86.2607 89.993 85.8896 91.7265L104.203 96.263ZM96.1875 3.31942C98.1543 3.31942 99.9912 3.68824 101.698 4.42589C103.405 5.16353 104.927 6.1778 106.263 7.46868C107.599 8.75957 108.619 10.2533 109.324 11.9499C110.029 13.6465 110.4 15.4906 110.438 17.4823C110.438 19.3633 110.085 21.1705 109.38 22.904C108.675 24.6374 107.636 26.1681 106.263 27.4958L42.4717 90.8967C42.1377 93.0727 41.4512 95.0644 40.4121 96.8716C39.373 98.6788 38.0742 100.283 36.5156 101.685C34.957 103.086 33.1943 104.137 31.2275 104.838C29.2607 105.539 27.1641 105.926 24.9375 106H0V98.9186C0.408203 98.9186 0.834961 98.8633 1.28027 98.7526C1.72559 98.642 2.13379 98.476 2.50488 98.2547C3.43262 97.7752 4.19336 97.1667 4.78711 96.429C5.38086 95.6914 5.84473 94.88 6.17871 93.9948C6.5127 93.1096 6.75391 92.1875 6.90234 91.2286C7.05078 90.2697 7.125 89.2923 7.125 88.2964C7.125 86.1204 7.49609 84.055 8.23828 82.1002C8.98047 80.1454 10.0566 78.3751 11.4668 76.7891C12.877 75.2032 14.4727 73.9123 16.2539 72.9165C18.0352 71.9207 20.0576 71.2383 22.3213 70.8695L86.1123 7.46868C87.4482 6.14092 88.9883 5.12665 90.7324 4.42589C92.4766 3.72512 94.2949 3.3563 96.1875 3.31942ZM24.9375 98.9186C26.4219 98.9186 27.8135 98.642 29.1123 98.0887C30.4111 97.5355 31.543 96.7794 32.5078 95.8205C33.4727 94.8615 34.2334 93.7366 34.79 92.4457C35.3467 91.1548 35.625 89.7717 35.625 88.2964C35.625 86.8212 35.3467 85.4381 34.79 84.1472C34.2334 82.8563 33.4727 81.7314 32.5078 80.7724C31.543 79.8135 30.4111 79.0574 29.1123 78.5042C27.8135 77.9509 26.4219 77.6743 24.9375 77.6743C23.4531 77.6743 22.0615 77.9509 20.7627 78.5042C19.4639 79.0574 18.332 79.8135 17.3672 80.7724C16.4023 81.7314 15.6416 82.8563 15.085 84.1472C14.5283 85.4381 14.25 86.8212 14.25 88.2964C14.25 92.1322 13.0625 95.6729 10.6875 98.9186H24.9375ZM53.7715 69.6524C52.584 67.3288 51.1924 65.374 49.5967 63.7881C48.001 62.2022 46.0342 60.8191 43.6963 59.6388L31.3945 71.8653C33.6953 72.7505 35.7178 74.0598 37.4619 75.7933C39.2061 77.5268 40.542 79.5553 41.4697 81.8789L53.7715 69.6524ZM101.197 22.4614C102.57 21.0967 103.257 19.437 103.257 17.4823C103.257 16.5233 103.071 15.6197 102.7 14.7714C102.329 13.9231 101.828 13.1855 101.197 12.5585C100.566 11.9315 99.8057 11.4151 98.915 11.0094C98.0244 10.6037 97.1152 10.4193 96.1875 10.4562C94.2207 10.4562 92.5508 11.1385 91.1777 12.5031L48.9287 54.4384C51.1924 55.7662 53.1035 57.2046 54.6621 58.7537C56.2207 60.3027 57.668 62.2022 59.0039 64.452L101.197 22.4614Z" fill="#F4F4F4"/>
</svg>
