<svg width="146" height="183" viewBox="0 0 146 183" fill="none" xmlns="http://www.w3.org/2000/svg">
<g filter="url(#filter0_d)">
<circle cx="14" cy="126" r="7" fill="#CCCCCC"/>
<ellipse cx="14" cy="163.5" rx="7" ry="6.5" fill="#CCCCCC"/>
<circle cx="88.5" cy="13.5" r="6.5" fill="#CCCCCC"/>
<circle cx="13.5" cy="13.5" r="6.5" fill="#CCCCCC"/>
<circle cx="88.5" cy="88.5" r="6.5" fill="#CCCCCC"/>
<circle cx="13.5" cy="88.5" r="6.5" fill="#CCCCCC"/>
<ellipse cx="88.5" cy="51" rx="6.5" ry="7" fill="#CCCCCC"/>
<ellipse cx="13.5" cy="51" rx="6.5" ry="7" fill="#CCCCCC"/>
<ellipse cx="88.5" cy="126" rx="6.5" ry="7" fill="#CCCCCC"/>
<circle cx="88.5" cy="163.5" r="6.5" fill="#CCCCCC"/>
<ellipse cx="51.5" cy="126" rx="6.5" ry="7" fill="#CCCCCC"/>
<circle cx="51.5" cy="163.5" r="6.5" fill="#CCCCCC"/>
<ellipse cx="126" cy="13.5" rx="7" ry="6.5" fill="#CCCCCC"/>
<ellipse cx="51" cy="13.5" rx="7" ry="6.5" fill="#CCCCCC"/>
<ellipse cx="126" cy="88.5" rx="7" ry="6.5" fill="#CCCCCC"/>
<ellipse cx="51" cy="88.5" rx="7" ry="6.5" fill="#CCCCCC"/>
<circle cx="126" cy="51" r="7" fill="#CCCCCC"/>
<circle cx="51" cy="51" r="7" fill="#CCCCCC"/>
<circle cx="126" cy="126" r="7" fill="#CCCCCC"/>
<ellipse cx="126" cy="163.5" rx="7" ry="6.5" fill="#CCCCCC"/>
</g>
<defs>
<filter id="filter0_d" x="0" y="0" width="146" height="183" filterUnits="userSpaceOnUse" color-interpolation-filters="sRGB">
<feFlood flood-opacity="0" result="BackgroundImageFix"/>
<feColorMatrix in="SourceAlpha" type="matrix" values="0 0 0 0 0 0 0 0 0 0 0 0 0 0 0 0 0 0 127 0"/>
<feOffset dx="3" dy="3"/>
<feGaussianBlur stdDeviation="5"/>
<feColorMatrix type="matrix" values="0 0 0 0 0 0 0 0 0 0 0 0 0 0 0 0 0 0 0.25 0"/>
<feBlend mode="normal" in2="BackgroundImageFix" result="effect1_dropShadow"/>
<feBlend mode="normal" in="SourceGraphic" in2="effect1_dropShadow" result="shape"/>
</filter>
</defs>
</svg>
