<svg width="114" height="114" viewBox="0 0 114 114" fill="none" xmlns="http://www.w3.org/2000/svg">
<path d="M113.55 49.875V99.3H85.5H85.05V99.75V113.55H28.95V99.75V99.3H28.5H0.45V49.875C0.45 48.9696 0.623751 48.1217 0.969322 47.3269C1.3199 46.5206 1.79214 45.8038 2.38673 45.1742C2.97209 44.5544 3.67952 44.0701 4.51487 43.722C5.35066 43.3738 6.21957 43.2 7.125 43.2H28.5H28.95V42.75V0.45H85.05V42.75V43.2H85.5H106.875C107.78 43.2 108.628 43.3738 109.423 43.7193C110.229 44.0699 110.946 44.5421 111.576 45.1367C112.196 45.7221 112.68 46.4295 113.028 47.2649C113.376 48.1007 113.55 48.9696 113.55 49.875ZM35.175 42.75V43.2H35.625H78.375H78.825V42.75V7.125V6.675H78.375H35.625H35.175V7.125V42.75ZM78.825 78.375V77.925H78.375H35.625H35.175V78.375V106.875V107.325H35.625H78.375H78.825V106.875V78.375ZM107.325 49.875V49.425H106.875H7.125H6.675V49.875V92.625V93.075H7.125H28.5H28.95V92.625V71.7H85.05V92.625V93.075H85.5H106.875H107.325V92.625V49.875ZM17.8125 57.45C18.6536 57.45 19.3753 57.752 19.9992 58.3758C20.623 58.9997 20.925 59.7214 20.925 60.5625C20.925 61.4036 20.623 62.1253 19.9992 62.7492C19.3753 63.373 18.6536 63.675 17.8125 63.675C16.9714 63.675 16.2497 63.373 15.6258 62.7492C15.002 62.1253 14.7 61.4036 14.7 60.5625C14.7 59.7214 15.002 58.9997 15.6258 58.3758C16.2497 57.752 16.9714 57.45 17.8125 57.45Z" fill="#231F20" stroke="#231F20" stroke-width="0.9"/>
</svg>
