<svg width="119" height="124" viewBox="0 0 119 124" fill="none" xmlns="http://www.w3.org/2000/svg">
<circle cx="58.5057" cy="57.0816" r="26.5284" stroke="#231F20" stroke-width="5"/>
<circle cx="101.494" cy="18.0816" r="15.0057" stroke="#231F20" stroke-width="5"/>
<circle cx="99.5001" cy="94.3087" r="13.0113" stroke="#231F20" stroke-width="5"/>
<circle cx="58.5056" cy="114.03" r="7.24999" stroke="#231F20" stroke-width="5"/>
<circle cx="13.5227" cy="24.0642" r="9.02271" stroke="#231F20" stroke-width="5"/>
<circle cx="58.5056" cy="49.3259" r="9.02271" stroke="#231F20" stroke-width="5"/>
<circle cx="8.5" cy="81.5" r="6" stroke="#231F20" stroke-width="5"/>
<path d="M58.5056 98.2972V85.6665" stroke="#231F20" stroke-width="5" stroke-linecap="round"/>
<path d="M88.8638 84.7804L79.1138 75.4736" stroke="#231F20" stroke-width="5" stroke-linecap="round"/>
<path d="M14.8522 78.1325L33.4658 70.1553" stroke="#231F20" stroke-width="5" stroke-linecap="round"/>
<path d="M26.8183 34.2575L35.6819 41.3484" stroke="#231F20" stroke-width="5" stroke-linecap="round"/>
<path d="M79.1137 39.1328L89.75 29.3828" stroke="#231F20" stroke-width="5" stroke-linecap="round"/>
<path d="M56.0681 22.7353V18.3035" stroke="#231F20" stroke-width="5" stroke-linecap="round"/>
<path d="M47.4138 24.232L45.875 20.0759" stroke="#231F20" stroke-width="5" stroke-linecap="round"/>
<path d="M39.4212 28.4503L37.0261 24.7214" stroke="#231F20" stroke-width="5" stroke-linecap="round"/>
<path d="M65.5301 23.3213L66.1904 18.939" stroke="#231F20" stroke-width="5" stroke-linecap="round"/>
<path d="M73.7956 26.2534L75.782 22.2917" stroke="#231F20" stroke-width="5" stroke-linecap="round"/>
<path d="M40.7783 77.6895V69.269C40.7783 66.7577 43.0385 61.1588 51.1931 57.0815" stroke="#231F20" stroke-width="5"/>
<path d="M76.2329 77.6895V69.269C76.2329 66.7577 73.9727 61.1588 65.8182 57.0815" stroke="#231F20" stroke-width="5"/>
</svg>
