<?xml version="1.0" encoding="UTF-8" standalone="no"?>
<svg
   xmlns:dc="http://purl.org/dc/elements/1.1/"
   xmlns:cc="http://creativecommons.org/ns#"
   xmlns:rdf="http://www.w3.org/1999/02/22-rdf-syntax-ns#"
   xmlns:svg="http://www.w3.org/2000/svg"
   xmlns="http://www.w3.org/2000/svg"
   xmlns:sodipodi="http://sodipodi.sourceforge.net/DTD/sodipodi-0.dtd"
   xmlns:inkscape="http://www.inkscape.org/namespaces/inkscape"
   width="349"
   height="189"
   viewBox="0 0 349 189"
   fill="none"
   version="1.1"
   id="svg111"
   sodipodi:docname="dotsDown.svg"
   inkscape:version="0.92.3 (2405546, 2018-03-11)">
  <metadata
     id="metadata115">
    <rdf:RDF>
      <cc:Work
         rdf:about="">
        <dc:format>image/svg+xml</dc:format>
        <dc:type
           rdf:resource="http://purl.org/dc/dcmitype/StillImage" />
      </cc:Work>
    </rdf:RDF>
  </metadata>
  <sodipodi:namedview
     pagecolor="#ffffff"
     bordercolor="#666666"
     borderopacity="1"
     objecttolerance="10"
     gridtolerance="10"
     guidetolerance="10"
     inkscape:pageopacity="0"
     inkscape:pageshadow="2"
     inkscape:window-width="2400"
     inkscape:window-height="1271"
     id="namedview113"
     showgrid="false"
     inkscape:zoom="2.2319589"
     inkscape:cx="-28.333723"
     inkscape:cy="165.0899"
     inkscape:window-x="-9"
     inkscape:window-y="-9"
     inkscape:window-maximized="1"
     inkscape:current-layer="g92" />
  <g
     filter="url(#filter0_d)"
     id="g92">
    <circle
       r="6.948"
       transform="matrix(1 5.56363e-08 5.56363e-08 -1 250.948 169.532)"
       fill="#C0C0C0"
       id="circle2"
       style="fill:#e0e0e0;fill-opacity:1" />
    <circle
       r="6.948"
       transform="matrix(1 5.56363e-08 5.56363e-08 -1 328.74 169.532)"
       fill="#C0C0C0"
       id="circle4"
       style="fill:#e0e0e0;fill-opacity:1" />
    <circle
       r="6.948"
       transform="matrix(1 5.56363e-08 5.56363e-08 -1 328.74 91.74)"
       fill="#C0C0C0"
       id="circle6"
       style="fill:#e0e0e0;fill-opacity:1" />
    <circle
       r="6.948"
       transform="matrix(1 5.56363e-08 5.56363e-08 -1 328.74 130.636)"
       fill="#C0C0C0"
       id="circle8"
       style="fill:#e0e0e0;fill-opacity:1" />
    <circle
       r="6.948"
       transform="matrix(1 5.56363e-08 5.56363e-08 -1 328.74 52.844)"
       fill="#C0C0C0"
       id="circle10"
       style="fill:#e0e0e0;fill-opacity:1" />
    <circle
       r="6.948"
       transform="matrix(1 5.56363e-08 5.56363e-08 -1 328.74 13.948)"
       fill="#C0C0C0"
       id="circle12"
       style="fill:#e0e0e0;fill-opacity:1" />
    <circle
       r="6.948"
       transform="matrix(1 5.56363e-08 5.56363e-08 -1 289.844 169.532)"
       fill="#C0C0C0"
       id="circle14"
       style="fill:#e0e0e0;fill-opacity:1" />
    <circle
       r="6.948"
       transform="matrix(1 5.56363e-08 5.56363e-08 -1 289.844 91.74)"
       fill="#C0C0C0"
       id="circle16"
       style="fill:#e0e0e0;fill-opacity:1" />
    <circle
       r="6.948"
       transform="matrix(1 5.56363e-08 5.56363e-08 -1 250.948 91.74)"
       fill="#C0C0C0"
       id="circle18"
       style="fill:#e0e0e0;fill-opacity:1" />
    <circle
       r="6.948"
       transform="matrix(1 5.56363e-08 5.56363e-08 -1 250.948 14.948)"
       fill="#C0C0C0"
       id="circle20"
       style="fill:#e0e0e0;fill-opacity:1" />
    <circle
       r="6.948"
       transform="matrix(1 5.56363e-08 5.56363e-08 -1 289.844 130.636)"
       fill="#C0C0C0"
       id="circle22"
       style="fill:#e0e0e0;fill-opacity:1" />
    <circle
       r="6.948"
       transform="matrix(1 5.56363e-08 5.56363e-08 -1 250.948 130.636)"
       fill="#C0C0C0"
       id="circle24"
       style="fill:#e0e0e0;fill-opacity:1" />
    <circle
       r="6.948"
       transform="matrix(1 5.56363e-08 5.56363e-08 -1 250.948 53.844)"
       fill="#C0C0C0"
       id="circle26"
       style="fill:#e0e0e0;fill-opacity:1" />
    <circle
       r="6.948"
       transform="matrix(1 5.56363e-08 5.56363e-08 -1 289.844 52.844)"
       fill="#C0C0C0"
       id="circle28"
       style="fill:#e0e0e0;fill-opacity:1" />
    <circle
       r="6.948"
       transform="matrix(1 5.56363e-08 5.56363e-08 -1 289.844 13.948)"
       fill="#C0C0C0"
       id="circle30"
       style="fill:#e0e0e0;fill-opacity:1" />
    <circle
       r="6.948"
       transform="matrix(1 5.56363e-08 5.56363e-08 -1 13.948 169.532)"
       fill="#C0C0C0"
       id="circle32"
       style="fill:#e0e0e0;fill-opacity:1" />
    <circle
       r="6.948"
       transform="matrix(1 5.56363e-08 5.56363e-08 -1 91.74 169.532)"
       fill="#C0C0C0"
       id="circle34"
       style="fill:#e0e0e0;fill-opacity:1" />
    <circle
       r="6.948"
       transform="matrix(1 5.56363e-08 5.56363e-08 -1 91.74 91.74)"
       fill="#C0C0C0"
       id="circle36"
       style="fill:#e0e0e0;fill-opacity:1" />
    <circle
       r="6.948"
       transform="matrix(1 5.56363e-08 5.56363e-08 -1 91.74 130.636)"
       fill="#C0C0C0"
       id="circle38"
       style="fill:#e0e0e0;fill-opacity:1" />
    <circle
       r="6.948"
       transform="matrix(1 5.56363e-08 5.56363e-08 -1 91.74 52.844)"
       fill="#C0C0C0"
       id="circle40"
       style="fill:#e0e0e0;fill-opacity:1" />
    <circle
       r="6.948"
       transform="matrix(1 5.56363e-08 5.56363e-08 -1 91.74 13.948)"
       fill="#C0C0C0"
       id="circle42"
       style="fill:#e0e0e0;fill-opacity:1" />
    <circle
       r="6.948"
       transform="matrix(1 5.56363e-08 5.56363e-08 -1 169.532 169.532)"
       fill="#C0C0C0"
       id="circle44"
       style="fill:#e0e0e0;fill-opacity:1" />
    <circle
       r="6.948"
       transform="matrix(1 5.56363e-08 5.56363e-08 -1 169.532 91.74)"
       fill="#C0C0C0"
       id="circle46"
       style="fill:#e0e0e0;fill-opacity:1" />
    <circle
       r="6.948"
       transform="matrix(1 5.56363e-08 5.56363e-08 -1 169.532 130.636)"
       fill="#C0C0C0"
       id="circle48"
       style="fill:#e0e0e0;fill-opacity:1" />
    <circle
       r="6.948"
       transform="matrix(1 5.56363e-08 5.56363e-08 -1 169.532 52.844)"
       fill="#C0C0C0"
       id="circle50"
       style="fill:#e0e0e0;fill-opacity:1" />
    <circle
       r="6.948"
       transform="matrix(1 5.56363e-08 5.56363e-08 -1 169.532 13.948)"
       fill="#C0C0C0"
       id="circle52"
       style="fill:#e0e0e0;fill-opacity:1" />
    <circle
       r="6.948"
       transform="matrix(1 5.56363e-08 5.56363e-08 -1 52.844 169.532)"
       fill="#C0C0C0"
       id="circle54"
       style="fill:#e0e0e0;fill-opacity:1" />
    <circle
       r="6.948"
       transform="matrix(1 5.56363e-08 5.56363e-08 -1 52.844 91.74)"
       fill="#C0C0C0"
       id="circle56"
       style="fill:#e0e0e0;fill-opacity:1" />
    <circle
       r="6.948"
       transform="matrix(1 5.56363e-08 5.56363e-08 -1 13.948 91.74)"
       fill="#C0C0C0"
       id="circle58"
       style="fill:#e0e0e0;fill-opacity:1" />
    <circle
       r="6.948"
       transform="matrix(1 5.56363e-08 5.56363e-08 -1 52.844 130.636)"
       fill="#C0C0C0"
       id="circle60"
       style="fill:#e0e0e0;fill-opacity:1" />
    <circle
       r="6.948"
       transform="matrix(1 5.56363e-08 5.56363e-08 -1 13.948 130.636)"
       fill="#C0C0C0"
       id="circle62"
       style="fill:#e0e0e0;fill-opacity:1" />
    <circle
       r="6.948"
       transform="matrix(1 5.56363e-08 5.56363e-08 -1 52.844 52.844)"
       fill="#C0C0C0"
       id="circle64"
       style="fill:#e0e0e0;fill-opacity:1" />
    <circle
       r="6.948"
       transform="matrix(1 5.56363e-08 5.56363e-08 -1 13.948 52.844)"
       fill="#C0C0C0"
       id="circle66"
       style="fill:#e0e0e0;fill-opacity:1" />
    <circle
       r="6.948"
       transform="matrix(1 5.56363e-08 5.56363e-08 -1 52.844 13.948)"
       fill="#C0C0C0"
       id="circle68"
       style="fill:#e0e0e0;fill-opacity:1" />
    <circle
       r="6.948"
       transform="matrix(1 5.56363e-08 5.56363e-08 -1 13.948 13.948)"
       fill="#C0C0C0"
       id="circle70"
       style="fill:#e0e0e0;fill-opacity:1" />
    <circle
       r="6.948"
       transform="matrix(1 5.56363e-08 5.56363e-08 -1 130.636 169.532)"
       fill="#C0C0C0"
       id="circle72"
       style="fill:#e0e0e0;fill-opacity:1" />
    <circle
       r="6.948"
       transform="matrix(1 5.56363e-08 5.56363e-08 -1 130.636 91.74)"
       fill="#C0C0C0"
       id="circle74"
       style="fill:#e0e0e0;fill-opacity:1" />
    <circle
       r="6.948"
       transform="matrix(1 5.56363e-08 5.56363e-08 -1 130.636 130.636)"
       fill="#C0C0C0"
       id="circle76"
       style="fill:#e0e0e0;fill-opacity:1" />
    <circle
       r="6.948"
       transform="matrix(1 5.56363e-08 5.56363e-08 -1 130.636 52.844)"
       fill="#C0C0C0"
       id="circle78"
       style="fill:#e0e0e0;fill-opacity:1" />
    <circle
       r="6.948"
       transform="matrix(1 5.56363e-08 5.56363e-08 -1 130.636 13.948)"
       fill="#C0C0C0"
       id="circle80"
       style="fill:#e0e0e0;fill-opacity:1" />
    <circle
       r="6.948"
       transform="matrix(1 5.56363e-08 5.56363e-08 -1 208.428 169.532)"
       fill="#C0C0C0"
       id="circle82"
       style="fill:#e0e0e0;fill-opacity:1" />
    <circle
       r="6.948"
       transform="matrix(1 5.56363e-08 5.56363e-08 -1 208.428 91.74)"
       fill="#C0C0C0"
       id="circle84"
       style="fill:#e0e0e0;fill-opacity:1" />
    <circle
       r="6.948"
       transform="matrix(1 5.56363e-08 5.56363e-08 -1 208.428 130.636)"
       fill="#C0C0C0"
       id="circle86"
       style="fill:#e0e0e0;fill-opacity:1" />
    <circle
       r="6.948"
       transform="matrix(1 5.56363e-08 5.56363e-08 -1 208.428 52.844)"
       fill="#C0C0C0"
       id="circle88"
       style="fill:#e0e0e0;fill-opacity:1" />
    <circle
       r="6.948"
       transform="matrix(1 5.56363e-08 5.56363e-08 -1 208.428 13.948)"
       fill="#C0C0C0"
       id="circle90"
       style="fill:#e0e0e0;fill-opacity:1" />
  </g>
  <defs
     id="defs109">
    <filter
       id="filter0_d"
       x="0"
       y="0"
       width="348.688"
       height="189.48"
       filterUnits="userSpaceOnUse"
       color-interpolation-filters="sRGB">
      <feFlood
         flood-opacity="0"
         result="BackgroundImageFix"
         id="feFlood94" />
      <feColorMatrix
         in="SourceAlpha"
         type="matrix"
         values="0 0 0 0 0 0 0 0 0 0 0 0 0 0 0 0 0 0 127 0"
         id="feColorMatrix96" />
      <feOffset
         dx="3"
         dy="3"
         id="feOffset98" />
      <feGaussianBlur
         stdDeviation="5"
         id="feGaussianBlur100" />
      <feColorMatrix
         type="matrix"
         values="0 0 0 0 0 0 0 0 0 0 0 0 0 0 0 0 0 0 0.25 0"
         id="feColorMatrix102" />
      <feBlend
         mode="normal"
         in2="BackgroundImageFix"
         result="effect1_dropShadow"
         id="feBlend104" />
      <feBlend
         mode="normal"
         in="SourceGraphic"
         in2="effect1_dropShadow"
         result="shape"
         id="feBlend106" />
    </filter>
  </defs>
</svg>
