<svg width="234" height="166" viewBox="0 0 234 166" fill="none" xmlns="http://www.w3.org/2000/svg">
<path d="M52.4886 121H18.4714C15.7986 121 13.6118 123.231 13.6118 125.959V161.041C13.6118 163.769 15.7986 166 18.4714 166H52.4886C55.1613 166 57.3482 163.769 57.3482 161.041V125.959C57.4697 123.231 55.2828 121 52.4886 121ZM52.1241 130.793C52.1241 130.793 49.3298 130.05 47.872 130.298C46.5356 130.545 45.6852 131.413 45.6852 133.645V137.364H52.1241L51.3951 143.19H45.6852V164.265H38.0312V143.19H34.0221V137.364H38.0312V132.901C38.0312 130.669 37.9098 129.678 38.7602 127.942C39.7322 126.207 42.2834 123.975 46.6571 124.099C51.1522 124.099 52.9746 124.595 52.9746 124.595L52.1241 130.793Z" fill="#F4F4F4"/>
<path d="M103.737 153.681V133.6V133.477C103.737 132.615 103.859 131.876 104.104 131.013C104.717 128.549 105.819 126.455 107.656 124.73C108.636 123.745 109.738 123.006 111.085 122.39C112.432 121.774 113.902 121.281 115.494 121.158C115.616 121.158 115.861 121.158 115.984 121.158H135.089C135.211 121.158 135.456 121.158 135.579 121.158C136.558 121.281 137.538 121.404 138.518 121.774C140.722 122.513 142.682 123.745 144.151 125.593C146.111 127.933 147.213 130.767 147.213 133.847C147.213 140.376 147.213 146.905 147.213 153.311C147.213 153.927 147.213 154.543 147.091 155.282C146.846 156.637 146.478 157.993 145.743 159.224C144.519 161.565 142.682 163.413 140.232 164.645C138.395 165.63 136.436 166 134.476 166C128.475 166 122.474 166 116.473 166C115.739 166 115.126 166 114.392 165.877C113.044 165.63 111.82 165.261 110.718 164.645C107.901 163.167 105.819 160.826 104.717 157.869C104.227 156.637 103.982 155.282 103.859 153.927C103.737 153.804 103.737 153.681 103.737 153.681ZM143.784 143.579C143.784 140.253 143.784 137.05 143.784 133.724C143.784 132.861 143.661 132.122 143.416 131.26C142.804 129.165 141.579 127.564 139.865 126.209C138.273 124.977 136.436 124.484 134.476 124.484C128.353 124.484 122.352 124.484 116.229 124.484C115.616 124.484 115.004 124.484 114.392 124.607C112.065 125.1 110.228 126.332 108.758 128.18C107.533 129.781 106.921 131.752 106.921 133.724C106.921 140.253 106.921 146.659 106.921 153.188C106.921 153.804 106.921 154.42 107.166 155.036C107.656 157.13 108.635 158.978 110.35 160.333C112.065 161.811 114.147 162.551 116.351 162.551C122.474 162.551 128.475 162.551 134.599 162.551C135.211 162.551 135.701 162.551 136.191 162.427C138.395 161.935 140.232 160.826 141.579 159.101C142.927 157.377 143.661 155.405 143.661 153.188V143.579H143.784Z" fill="#F4F4F4"/>
<path d="M125.536 155.405C118.923 155.405 113.534 149.985 113.534 143.333C113.534 136.803 118.923 131.383 125.536 131.383C132.027 131.383 137.416 136.68 137.416 143.456C137.538 150.231 132.027 155.529 125.536 155.405ZM133.252 143.456C133.252 139.144 129.823 135.695 125.536 135.571C121.127 135.448 117.698 139.144 117.576 143.333C117.453 147.644 121.005 151.217 125.291 151.34C129.823 151.34 133.252 147.768 133.252 143.456Z" fill="#F4F4F4"/>
<path d="M137.66 128.426C139.252 128.426 140.477 129.658 140.477 131.26C140.477 132.738 139.252 134.093 137.66 134.093C136.068 134.093 134.844 132.738 134.844 131.26C134.844 129.658 136.068 128.426 137.66 128.426Z" fill="#F4F4F4"/>
<path d="M210.606 119.697C198.237 119.697 188.195 129.799 188.195 142.241C188.195 148.401 191.501 153.945 191.501 153.945L187.582 165.894L199.829 161.952C199.829 161.952 204.36 164.786 210.606 164.786C222.976 164.786 233.018 154.684 233.018 142.241C233.018 129.676 222.976 119.697 210.606 119.697ZM210.606 161.09C204.85 161.09 200.196 158.01 200.196 158.01L193.093 160.351L195.42 153.452C195.42 153.452 191.746 148.401 191.746 142.241C191.746 131.77 200.196 123.27 210.606 123.27C221.016 123.27 229.466 131.77 229.466 142.241C229.466 152.59 221.016 161.09 210.606 161.09Z" fill="#F4F4F4"/>
<path d="M202.156 132.386C202.156 132.386 202.768 132.016 203.136 132.016H204.85C204.85 132.016 205.34 132.139 205.585 132.632C205.83 133.125 207.3 136.698 207.422 136.944C207.545 137.19 207.79 137.93 207.3 138.546C206.81 139.162 205.83 140.27 205.83 140.27C205.83 140.27 205.463 140.64 205.83 141.133C206.197 141.749 207.3 143.473 208.892 144.952C210.484 146.307 212.321 147.292 213.178 147.662C214.035 148.031 214.28 147.539 214.648 147.046C215.015 146.553 216.117 145.198 216.117 145.198C216.117 145.198 216.485 144.582 217.22 144.952C217.954 145.321 221.628 147.046 221.628 147.046C221.628 147.046 222.118 147.169 222.118 147.662C222.118 148.155 222.486 149.633 221.139 151.111C219.791 152.59 216.975 153.205 215.628 152.836C214.28 152.466 209.871 151.234 206.932 148.524C203.993 145.814 201.666 142.98 200.686 140.886C199.707 138.792 199.829 137.56 199.829 136.944C199.952 136.328 200.319 133.495 202.156 132.386Z" fill="#F4F4F4"/>
<path d="M176.65 29.1979C179.66 7.56862 180.843 15.0307 188.799 28.6572C192.562 37.0926 198.905 45.0955 209.011 42.6081C208.151 45.8525 205.571 48.7724 204.065 51.8006C202.775 53.3146 202.238 56.6671 200.302 57.0997C186.971 55.1531 176.435 42.6081 176.65 29.1979Z" fill="#F4F4F4"/>
<path d="M216.107 15.3552C206.323 14.8145 194.497 14.5982 191.164 25.9536C187.939 21.9521 185.789 16.653 182.993 12.2189C182.778 11.7864 182.778 11.4619 183.101 11.0293C189.444 3.24277 199.657 -0.650486 209.548 1.07986C217.612 2.37762 224.815 7.35235 229.008 14.3819C229.008 16.653 218.472 14.8145 216.107 15.3552Z" fill="#F4F4F4"/>
<path d="M222.772 18.4914C225.353 18.924 229.33 17.5181 231.266 19.1403C232.556 22.8172 233.201 26.4942 232.986 30.3875C232.663 44.771 220.085 57.316 205.678 57.4242C202.345 57.6405 215.462 39.3637 216.322 36.5519C225.353 21.4113 204.173 17.4099 222.772 18.4914Z" fill="#F4F4F4"/>
<path d="M204.925 18.4915C218.579 18.3834 218.472 39.9045 204.925 39.6882C191.164 39.7964 191.272 18.2752 204.925 18.4915Z" fill="#F4F4F4"/>
<path d="M113.079 88.5809C111.01 90.9743 109.044 93.2637 107.079 95.6572C109.251 98.1547 111.32 100.652 113.596 103.254C106.872 104.086 106.872 101.693 102.941 97.01V103.15H98.4922V82.0249C99.9405 82.0249 101.389 82.0249 102.837 82.1289C102.941 86.1874 102.941 90.2459 102.941 94.4084C106.251 90.1418 107.286 87.6443 113.079 88.5809Z" fill="#F4F4F4"/>
<path d="M76.6635 90.0378V88.5809H81.0085V103.15H76.7669V101.693C72.9392 105.751 66.4218 102.525 65.9046 97.4263C64.0424 91.2865 71.6978 85.0427 76.6635 90.0378ZM76.6635 95.8653C77.5946 90.7662 69.1116 91.3906 69.7323 96.1775C69.9392 100.548 77.4911 100.444 76.6635 95.8653Z" fill="#F4F4F4"/>
<path d="M96.9403 92.223C95.8023 92.8474 94.6643 93.4718 93.5264 94.0962C92.285 92.0149 89.3884 91.5986 87.7331 93.4718C84.5262 97.218 90.3194 102.109 93.5264 97.6343C99.7334 99.8196 95.0782 102.629 91.147 103.462C74.181 102.733 86.8021 78.5908 96.9403 92.223Z" fill="#F4F4F4"/>
<path d="M45.6284 101.589C46.0422 100.548 46.456 99.6116 46.8698 98.6751C52.7666 102.317 58.146 98.4669 48.3181 96.6979C43.4559 94.2003 46.8698 88.1647 51.0079 88.2687C54.2149 88.1647 58.9736 88.685 56.1804 92.7435C54.3183 92.2232 51.3182 90.2459 49.8699 92.4313C51.2148 95.1369 57.5253 93.7841 57.7322 98.0507C58.2495 104.503 49.4561 104.399 45.6284 101.589Z" fill="#F4F4F4"/>
<path d="M63.9392 81.9208V103.046H59.5942C59.4908 96.2815 59.5942 89.4134 59.4907 82.6493C59.8011 81.0883 62.6978 82.3371 63.9392 81.9208Z" fill="#F4F4F4"/>
<path d="M25.7659 100.964C25.7659 103.254 26.2831 107 22.9727 107C21.4209 107 20.283 105.855 20.283 104.19C20.8003 101.381 18.9381 96.6978 21.9382 95.1368C26.0762 93.888 25.9728 98.3628 25.7659 100.964Z" fill="#F4F4F4"/>
<path d="M32.3865 87.5403C32.6969 90.246 32.283 94.9288 28.4554 93.3678C27.4208 92.9516 27.0071 92.015 27.0071 90.9744C27.0071 88.7891 27.0071 86.6037 27.0071 84.4184C27.0071 82.7534 28.2485 81.7128 29.8003 81.7128C32.9038 81.6087 32.49 85.2509 32.3865 87.5403Z" fill="#F4F4F4"/>
<path d="M19.8702 93.576C17.5943 93.576 13.7666 94.2004 13.7666 90.8703C13.7666 89.5175 14.9046 88.1647 16.3529 88.1647C18.7323 88.1647 21.0082 88.1647 23.3875 88.1647C24.629 88.1647 25.7669 89.4134 25.7669 90.7663C25.6634 94.3044 22.1461 93.576 19.8702 93.576Z" fill="#F4F4F4"/>
<path d="M33.2142 94.9288C35.3867 94.9288 38.9041 94.4084 39.111 97.5303C39.111 98.9872 37.973 100.236 36.6281 100.34C34.2487 100.34 31.8694 100.34 29.3865 100.34C27.421 100.34 26.283 97.6344 27.5244 96.1775C28.7658 94.2003 31.3521 95.1369 33.2142 94.9288Z" fill="#F4F4F4"/>
<path d="M27.0074 101.485C30.8351 100.444 34.9732 104.503 30.4213 106.896C27.1109 107.624 26.6971 103.982 27.0074 101.485Z" fill="#F4F4F4"/>
<path d="M23.8001 86.9159C17.8 87.6443 21.1105 78.2786 25.145 82.5452C25.9727 83.5859 25.7657 85.1468 25.7657 86.3956C25.7657 87.4362 24.4208 86.8118 23.8001 86.9159Z" fill="#F4F4F4"/>
<path d="M19.1448 94.9288C19.6621 97.6344 18.5241 101.485 15.1102 99.9238C11.386 96.5938 15.3171 94.2003 19.1448 94.9288Z" fill="#F4F4F4"/>
<path d="M35.3866 93.576C32.8003 94.0963 33.5244 90.8703 34.1451 89.3094C38.4901 84.6265 41.6971 94.6166 35.3866 93.576Z" fill="#F4F4F4"/>
<path d="M233.014 91.996C231.482 93.2285 229.236 93.5366 227.296 93.6393C225.254 98.3639 220.864 111.921 214.023 103.602C211.777 107.094 206.978 108.224 204.527 104.218C202.179 107.813 195.848 107.505 195.338 102.883C187.17 111.51 177.266 103.294 184.004 93.6393C181.146 93.3312 178.593 96.3097 176.551 98.1585C173.794 100.11 172.875 111.408 169.097 104.218C170.425 99.8018 173.692 95.1799 173.59 90.3527C172.977 87.9904 178.491 88.0932 177.572 92.6123C180.227 90.8662 183.086 88.9148 186.046 90.7636C187.986 87.2715 194.725 83.574 196.767 88.6067C196.972 95.18 189.008 98.672 185.944 102.78C189.11 105.861 193.296 99.1855 196.359 97.8503C199.014 91.2771 202.791 85.2174 205.957 78.8495C207.692 76.8981 212.083 78.5414 210.041 81.4172C205.854 88.1959 200.137 94.9745 199.116 103.088C199.728 105.759 202.894 99.9045 204.425 99.8018C207.08 93.742 210.041 87.3742 213.614 81.6226C214.227 80.3901 214.533 78.336 216.167 78.2333C226.888 76.5899 204.731 98.0558 208.305 103.91C210.245 103.191 211.674 100.726 213.41 99.5963C214.227 94.8718 219.332 83.8821 225.152 88.2986C226.071 92.5095 230.768 89.0175 233.014 91.5852V91.996ZM216.882 100.932C217.188 108.018 224.744 93.0231 222.497 91.0717C220.251 91.1744 217.188 98.3639 216.882 100.932ZM192.887 89.8392C190.335 89.8392 187.476 94.8718 186.353 97.4395C188.803 96.7206 191.56 92.6123 192.887 89.8392Z" fill="#F4F4F4"/>
<path d="M131.932 94.5638C132.647 90.8663 129.686 83.0606 135.097 82.4443C139.794 83.5741 155.824 79.4658 156.13 85.6282C155.109 90.6609 158.683 104.526 153.782 106.683C147.554 106.991 141.325 106.683 135.097 106.786C129.686 106.067 132.749 98.3639 131.932 94.5638ZM142.449 93.9475C141.836 91.4825 143.98 86.4499 140.917 85.5255C139.079 85.9364 135.403 84.3958 134.995 87.0661C135.812 90.4555 133.259 101.342 136.527 102.37C144.593 103.397 142.142 99.9045 142.449 93.9475ZM152.965 90.969C152.659 89.3257 153.986 85.9364 151.536 85.6282C149.698 86.0391 145.92 84.4985 145.614 87.0661C146.226 89.7365 143.98 95.0773 147.043 96.3098C152.148 96.5152 153.578 96.7206 152.965 90.969Z" fill="#F4F4F4"/>
<path d="M171.344 85.8336C168.791 91.996 164.911 98.4666 164.809 105.553C164.809 106.272 164.401 107.094 163.482 106.991C156.845 105.964 163.073 97.2341 163.584 93.2285C163.584 91.6879 167.872 85.9363 164.911 86.7579C163.686 86.7579 161.44 86.8606 161.44 85.2173C161.44 84.2929 161.542 82.8551 162.767 83.0605C164.401 83.3686 166.034 83.3686 167.668 83.1632C171.242 82.9577 175.019 81.3144 178.491 82.6496C180.941 83.4713 181.146 86.039 178.287 86.2444C176.347 84.6011 173.692 85.32 171.344 85.8336Z" fill="#F4F4F4"/>
<path d="M95.0715 0.674011H152.735V57.2189H95.0715V0.674011ZM97.4104 54.7851H150.316V3.02666H97.4104V54.7851Z" fill="#F4F4F4"/>
<path d="M113.217 30.5284V31.0963C113.217 33.9357 113.217 36.7752 113.217 39.6146C113.217 40.1825 113.217 40.1824 112.653 40.1824C111.605 40.1824 110.556 40.1824 109.427 40.1824C109.104 40.1824 108.943 40.1013 108.943 39.6957C108.943 31.1774 108.943 22.7403 108.943 14.2221C108.943 13.8165 109.104 13.6542 109.508 13.6542C112.008 13.6542 114.589 13.492 117.089 13.5731C119.185 13.6542 121.04 14.3032 122.653 15.7635C123.863 16.8993 124.589 18.4407 124.831 20.0632C125.154 21.9291 124.992 23.795 124.266 25.5797C123.299 27.9324 121.444 29.3115 119.105 30.0417C117.492 30.5284 115.798 30.6907 114.105 30.6096C113.782 30.6096 113.54 30.5284 113.217 30.5284ZM113.298 26.7155C114.83 26.7155 116.363 26.8778 117.814 26.391C119.266 25.9043 120.234 24.9307 120.557 23.4705C120.718 22.9026 120.718 22.2536 120.718 21.6046C120.637 19.7387 119.831 18.2784 118.056 17.6294C116.524 17.0615 114.992 17.3049 113.379 17.3049V26.7155H113.298Z" fill="#F4F4F4"/>
<path d="M127.331 35.3149C127.896 35.5582 128.299 35.8827 128.783 36.045C130.315 36.694 131.928 37.0185 133.541 36.694C134.832 36.4506 135.477 35.396 135.074 34.3414C134.912 33.8546 134.509 33.449 134.106 33.1245C133.057 32.4755 132.009 31.9076 130.96 31.2586C129.993 30.6907 129.025 30.0417 128.38 29.0682C126.525 26.391 127.493 22.5781 130.396 21.0367C131.364 20.5499 132.332 20.3065 133.38 20.2254C134.993 20.1443 136.525 20.2254 138.058 20.7933C138.461 20.8744 138.542 21.1178 138.542 21.5234C138.542 22.4969 138.542 23.4705 138.542 24.5251C138.542 25.0119 138.461 25.0119 138.058 24.8496C136.606 24.0383 135.074 23.795 133.461 23.9572C133.057 23.9572 132.654 24.1195 132.251 24.3628C131.364 24.8496 131.202 26.1476 131.928 26.7966C132.573 27.3645 133.38 27.8513 134.186 28.338C135.235 28.987 136.364 29.5549 137.412 30.2851C138.945 31.4208 139.59 32.9622 139.509 34.8281C139.429 37.5053 138.058 39.3712 135.477 40.1013C132.977 40.8314 130.557 40.6692 128.138 39.6957C127.654 39.5334 127.493 39.29 127.493 38.7222C127.573 37.7486 127.493 36.7751 127.493 35.8016V35.3149H127.331Z" fill="#F4F4F4"/>
<path d="M99.6205 60.432C98.4805 61.992 97.8685 63.912 97.8685 65.82C97.8685 67.716 98.4925 69.66 99.6205 71.208H100.196C99.3085 69.492 98.8765 67.764 98.8765 65.82C98.8765 63.96 99.2245 62.028 100.196 60.432H99.6205ZM100.943 69H101.999V65.376H103.307C104.759 65.376 105.779 64.488 105.779 62.892C105.779 60.432 103.871 60.432 103.127 60.432H100.943V69ZM101.999 61.296H103.187C104.231 61.296 104.675 61.908 104.675 62.844C104.675 63.984 104.027 64.512 103.259 64.512H101.999V61.296ZM106.684 69H107.692V64.56C107.692 63.624 108.424 63.264 108.964 63.264C109.876 63.264 109.912 64.068 109.912 64.56V69H110.92V64.44C110.92 63.684 110.92 62.4 109.264 62.4C108.688 62.4 107.98 62.772 107.716 63.3H107.692V60.432H106.684V69ZM111.927 65.784C111.927 67.596 112.383 69.168 114.243 69.168C116.091 69.168 116.559 67.596 116.559 65.784C116.559 63.972 116.103 62.4 114.243 62.4C112.395 62.4 111.927 63.972 111.927 65.784ZM114.219 68.376C113.187 68.376 112.983 67.176 112.983 65.784C112.983 64.392 113.199 63.192 114.219 63.192C115.299 63.192 115.503 64.392 115.503 65.784C115.503 67.176 115.287 68.376 114.219 68.376ZM117.871 62.568H116.935V63.36H117.871V67.8C117.871 68.64 118.123 69.072 119.167 69.072C119.587 69.072 119.851 69.024 119.983 69V68.172C119.875 68.184 119.755 68.208 119.539 68.208C119.011 68.208 118.879 68.004 118.879 67.488V63.36H119.995V62.568H118.879V60.696H117.871V62.568ZM120.365 65.784C120.365 67.596 120.821 69.168 122.681 69.168C124.529 69.168 124.997 67.596 124.997 65.784C124.997 63.972 124.541 62.4 122.681 62.4C120.833 62.4 120.365 63.972 120.365 65.784ZM122.657 68.376C121.625 68.376 121.421 67.176 121.421 65.784C121.421 64.392 121.637 63.192 122.657 63.192C123.737 63.192 123.941 64.392 123.941 65.784C123.941 67.176 123.725 68.376 122.657 68.376ZM129.777 64.452C129.765 63.696 129.693 62.4 127.821 62.4C126.705 62.4 125.769 62.976 125.769 64.176C125.769 65.508 126.573 65.736 127.353 66C128.133 66.264 128.925 66.444 128.925 67.308C128.925 68.22 128.181 68.376 127.857 68.376C126.873 68.376 126.657 67.668 126.657 66.888H125.649C125.649 67.548 125.673 69.168 127.857 69.168C129.057 69.168 129.933 68.508 129.933 67.152C129.933 65.88 129.141 65.604 128.361 65.34C127.569 65.076 126.777 64.932 126.777 64.176C126.777 63.276 127.497 63.192 127.821 63.192C128.553 63.192 128.769 63.636 128.769 64.452H129.777ZM130.895 69H131.903V64.56C131.903 63.624 132.635 63.264 133.175 63.264C134.087 63.264 134.123 64.068 134.123 64.56V69H135.131V64.44C135.131 63.684 135.131 62.4 133.475 62.4C132.899 62.4 132.191 62.772 131.927 63.3H131.903V60.432H130.895V69ZM136.138 65.784C136.138 67.596 136.594 69.168 138.454 69.168C140.302 69.168 140.77 67.596 140.77 65.784C140.77 63.972 140.314 62.4 138.454 62.4C136.606 62.4 136.138 63.972 136.138 65.784ZM138.43 68.376C137.398 68.376 137.194 67.176 137.194 65.784C137.194 64.392 137.41 63.192 138.43 63.192C139.51 63.192 139.714 64.392 139.714 65.784C139.714 67.176 139.498 68.376 138.43 68.376ZM142.73 65.784C142.73 64.32 142.91 63.264 144.026 63.264C144.962 63.264 145.202 64.248 145.202 65.664C145.202 67.32 144.962 68.304 144.026 68.304C142.946 68.304 142.73 67.032 142.73 65.784ZM141.782 71.112H142.79V68.268H142.814C143.042 68.82 143.582 69.168 144.158 69.168C145.826 69.168 146.258 67.128 146.258 65.664C146.258 63.756 145.682 62.4 144.158 62.4C143.462 62.4 142.898 62.88 142.766 63.36H142.742V62.568H141.782V71.112ZM147.301 71.208C148.441 69.648 149.053 67.728 149.053 65.82C149.053 63.924 148.429 61.98 147.301 60.432H146.725C147.613 62.148 148.045 63.876 148.045 65.82C148.045 67.68 147.697 69.612 146.725 71.208H147.301Z" fill="#F4F4F4"/>
<path fill-rule="evenodd" clip-rule="evenodd" d="M13.6118 57.3811H71.2757V0.836243H13.6118V57.3811ZM16.0313 3.18889H68.9369V54.9473H16.0313V3.18889Z" fill="#F4F4F4"/>
<path fill-rule="evenodd" clip-rule="evenodd" d="M33.6126 32.881L31.6771 40.1013C31.6771 40.2635 31.5964 40.3447 31.3545 40.3447H27.8059C27.564 40.3447 27.564 40.2635 27.564 40.0202L34.4191 16.0068C34.4998 15.6012 34.5804 15.1956 34.6611 13.9787C34.6611 13.8164 34.7417 13.7353 34.8224 13.7353H39.8226C39.9839 13.7353 40.0645 13.7353 40.0645 13.9787L47.7262 40.1013C47.8068 40.2635 47.7262 40.4258 47.5649 40.4258H43.6131C43.4518 40.4258 43.2905 40.3446 43.2905 40.1824L41.2743 32.881H33.6126ZM40.3065 28.9059C39.6613 26.2287 38.0483 20.3876 37.4838 17.5482H37.4031C36.9192 20.3876 35.6288 25.1741 34.6611 28.9059H40.3065ZM51.1134 15.4389C51.1134 13.8975 52.1619 13.0052 53.5329 13.0052C54.9846 13.0052 55.9524 13.9787 55.9524 15.4389C55.9524 17.0615 54.904 17.8727 53.4523 17.8727C52.1619 17.9538 51.1134 17.0615 51.1134 15.4389ZM51.4361 20.9555C51.4361 20.7933 51.5167 20.7121 51.678 20.7121H55.4685C55.6298 20.7121 55.7104 20.7933 55.7104 20.9555V40.0202C55.7104 40.1824 55.7104 40.2635 55.4685 40.2635H51.7586C51.5167 40.2635 51.4361 40.1824 51.4361 39.939V20.9555Z" fill="#F4F4F4"/>
<path d="M20.8732 60.432C19.7332 61.992 19.1212 63.912 19.1212 65.82C19.1212 67.716 19.7452 69.66 20.8732 71.208H21.4492C20.5612 69.492 20.1292 67.764 20.1292 65.82C20.1292 63.96 20.4772 62.028 21.4492 60.432H20.8732ZM22.1958 69H23.2518V60.432H22.1958V69ZM24.669 69H25.677V60.432H24.669V69ZM27.1182 69H28.1262V60.432H27.1182V69ZM33.7434 62.568H32.7354V67.008C32.7354 67.944 32.0034 68.304 31.4634 68.304C30.5514 68.304 30.5154 67.5 30.5154 67.008V62.568H29.5074V67.128C29.5074 67.884 29.5074 69.168 31.1994 69.168C31.8234 69.168 32.4954 68.832 32.7594 68.244H32.7834V69H33.7434V62.568ZM38.8301 64.452C38.8181 63.696 38.7461 62.4 36.8741 62.4C35.7581 62.4 34.8221 62.976 34.8221 64.176C34.8221 65.508 35.6261 65.736 36.4061 66C37.1861 66.264 37.9781 66.444 37.9781 67.308C37.9781 68.22 37.2341 68.376 36.9101 68.376C35.9261 68.376 35.7101 67.668 35.7101 66.888H34.7021C34.7021 67.548 34.7261 69.168 36.9101 69.168C38.1101 69.168 38.9861 68.508 38.9861 67.152C38.9861 65.88 38.1941 65.604 37.4141 65.34C36.6221 65.076 35.8301 64.932 35.8301 64.176C35.8301 63.276 36.5501 63.192 36.8741 63.192C37.6061 63.192 37.8221 63.636 37.8221 64.452H38.8301ZM40.2488 62.568H39.3128V63.36H40.2488V67.8C40.2488 68.64 40.5008 69.072 41.5448 69.072C41.9648 69.072 42.2288 69.024 42.3608 69V68.172C42.2528 68.184 42.1328 68.208 41.9168 68.208C41.3888 68.208 41.2568 68.004 41.2568 67.488V63.36H42.3728V62.568H41.2568V60.696H40.2488V62.568ZM43.0543 69H44.0623V64.932C44.0623 63.864 44.8783 63.408 45.3823 63.408C45.7063 63.408 45.8263 63.444 45.9223 63.456V62.472C45.8263 62.424 45.6823 62.4 45.4783 62.4C44.7583 62.4 44.3743 62.916 44.0863 63.528H44.0623V62.568H43.0543V69ZM47.4571 64.512V64.452C47.4571 64.224 47.4571 63.192 48.5611 63.192C49.2331 63.192 49.5931 63.54 49.5931 64.14C49.5931 64.68 49.5931 64.884 48.8611 65.112L47.5051 65.52C46.6771 65.772 46.2931 66.396 46.2931 67.296C46.2931 68.448 46.8451 69.168 48.0451 69.168C48.6451 69.168 49.2691 68.82 49.5931 68.244H49.6171C49.6651 69.072 50.1451 69.072 50.5291 69.072C50.7811 69.072 51.0451 69.024 51.1171 69.012V68.292C51.0691 68.328 51.0091 68.352 50.8771 68.352C50.5651 68.352 50.5651 68.1 50.5651 67.836V64.248C50.5651 63.576 50.5651 62.4 48.6091 62.4C47.0731 62.4 46.4491 63.048 46.4491 64.512H47.4571ZM49.5571 67.152C49.5571 67.812 48.9211 68.376 48.2611 68.376C47.5771 68.376 47.3491 67.92 47.3491 67.272C47.3491 66.708 47.5171 66.456 47.8411 66.252C48.2971 65.976 49.1851 65.892 49.5571 65.496V67.152ZM52.3543 62.568H51.4183V63.36H52.3543V67.8C52.3543 68.64 52.6063 69.072 53.6503 69.072C54.0703 69.072 54.3343 69.024 54.4663 69V68.172C54.3583 68.184 54.2383 68.208 54.0223 68.208C53.4943 68.208 53.3623 68.004 53.3623 67.488V63.36H54.4783V62.568H53.3623V60.696H52.3543V62.568ZM54.8478 65.784C54.8478 67.596 55.3038 69.168 57.1638 69.168C59.0118 69.168 59.4798 67.596 59.4798 65.784C59.4798 63.972 59.0238 62.4 57.1638 62.4C55.3158 62.4 54.8478 63.972 54.8478 65.784ZM57.1398 68.376C56.1078 68.376 55.9038 67.176 55.9038 65.784C55.9038 64.392 56.1198 63.192 57.1398 63.192C58.2198 63.192 58.4238 64.392 58.4238 65.784C58.4238 67.176 58.2078 68.376 57.1398 68.376ZM60.4918 69H61.4998V64.932C61.4998 63.864 62.3158 63.408 62.8198 63.408C63.1438 63.408 63.2638 63.444 63.3598 63.456V62.472C63.2638 62.424 63.1198 62.4 62.9158 62.4C62.1958 62.4 61.8118 62.916 61.5238 63.528H61.4998V62.568H60.4918V69ZM64.0066 71.208C65.1466 69.648 65.7586 67.728 65.7586 65.82C65.7586 63.924 65.1346 61.98 64.0066 60.432H63.4306C64.3186 62.148 64.7506 63.876 64.7506 65.82C64.7506 67.68 64.4026 69.612 63.4306 71.208H64.0066Z" fill="#F4F4F4"/>
</svg>
